<?xml version="1.0" encoding="UTF-8"?>
<svg width="1691pt" height="916pt" version="1.1" viewBox="0 0 1691 916" xmlns="http://www.w3.org/2000/svg">
 <path d="m1593.9 0h2.9c-43.4 31.84-95.7 47.47-145.1 65.84-4.8-1.68-7.6 8.26-0.4 4.5 54.8-16.02 107.5-37.73 161.9-55.26 3.8-3.14 13.5-2.12 14.2 2.47-53 24.63-108.3 44.97-164.6 60.24-2.1 0.79-1.8 3.27-1.7 5.05 67.5-9.37 132.2-33.36 199.6-43.7 0 6.07-10.4 6.48-15.3 9.16-49 21.21-101.5 31.72-152.9 45.03-9.3 3.47 3.9 8.84 8 3.9 63.7-6.29 127.5-17.25 190.5-28.65v0.92c-55.2 30.66-119.7 34.87-179.8 49.61-12 4.3 3.6 11.15 9.6 9.67 27.8-2.89 55.3 2.57 83 1.26 26.4 2.01 53.4-0.75 79.4 5.03-34.8 8.88-74.2 12.25-111.2 14.24-12.5 2.01-27.5-1.66-38.1 6.92 2.2 3.51 7.9 3.27 11.3 5.55 36 8.79 74.3 8.44 110.1 19.21-24.7 6.05-50.5 4.68-74.9 11.28 4.8 9.56 26.2 3.84 29.6 16.57-12.7 13.3-33.5 11.38-48.3 21.28 2.9 20.05-22.6 26.25-37.4 30.22 3.4 26.49-29.8 29.55-48.3 26.94-4.5 7.05-12.5 5.91-19.3 8.47 0.9 4.71-1.7 5.01-4.7 4.45 3.7 5.88 6.8 17.21-2.9 19.1-8.1 7.11-20.9-5.36-26.9 4.57 4.1 6.36 0.3 13.87 2.5 20.89-8.5 8.21-21.4-5.39-28.6 5.3 0.7 6.35 1.6 14.61 1.6 21.84-13.9 4.9-23.9-7.86-36.4-10.08 2.5 5.33 4.7 10.86 3.5 16.91-11 3.79-22.2 0.91-31.8-4.55-9.6 3.1-0.6 19.35-3.2 22.26-9.6-11-13.4 9.62-4.3 13.52-4.9 8.82-18 0.19-21.5 9.91-2.4 7.66-10.4 5.86-16.4 5.33-5.4 9.56-11.3 24.85-25.4 18.16-3.3 10.07-11.3 13.56-20.9 9.62-6 4.04-10.5 11.81-13.7 18.7-7.8 1.11-17.5-8.92-22.1 1.77-7.2 11.66-24.7-3.66-29.4 10.67-3.8 8.56-15.1 0.69-20 8.03-9.6 14.73-28.5 10.25-41.7 18.53 7.5 8.74 20.1 2.46 28.6 8.63 4.2 8.27-8.9 13.18-7.8 21.3 34.3 6.48 70 18.82 92.2 47.26 2.2 7.62-7.3 13.34-13 15.4-10-4.11-17-14.73-26.6-18.67 3.1 6.81-1.2 16.1 6 20.65 12.7 8.4 28.6 20.21 26.2 37.37-0.7 4.26 6.4 4.49 5.8 8.11-5.6 5.63-10.9 12.83-19.5 13.48-9.6 2.5-17.3-6.21-26.8-5.05 4.2 14.62 22.4 25.48 23.4 42.44-1.2 7.56-8.7 7.78-14.6 5.86-2.3 4.96-6.3 9.54-12 10.37-5.1-3.17-10.4-7.44-16.8-5.5-1.9 7.39 2.7 14.48 10 16.05 8.1 7.11 17.2 31.17-0.5 31.99-10 2.67-16.4-12.55-26-8.42-2.8 5.98 4 16.44-3.4 20.97-11.9-1.71-22.1-9.04-29.5-18.22-10.6-3.74-5 12.65-9.2 16.94-6.5-0.77-8.3-12.57-15.8-9.94 4 15.84-3.6 31-18.7 34.3-21.8-2.7-28.6-25.07-43.6-36.89-3.6-4.68-0.5-16.45-8.8-15.74 4.3 14.44-6.1 30.86-0.9 40.73-19.09-0.18-35.98 15.15-55.19 8.18-3.65-5.3-4.97-14.54-12.75-9.39-12.73-5.53-1.73-22.2-6.7-32.44-12.38 2.61-17.61-12.07-21.91-21.08-7.04-18.6 3.57-37.24 19.11-47.55 4.13-18.35-6.29-49.99-29.6-44.78-13.49 1.84-18.81-14.37-26.27-22.42-2.92 9.64-0.93 23.86-12.58 27.72-5.69 3.56-10.57-2.62-16.08-3.43 6.32 11.86 20.7 20.94 21.13 35.38-0.83 15.17-17.72 11.34-20.72 24.36-6.73 5.69-24.17-2.09-24.47 11.51-1.04 14.51-18.4 10.96-28.36 13.18-4.13 9.32-8.93 21.65-21.45 19.01-15.61-4.72-9.3 23.66-26.06 16.99-10.69-3.67-10.96 10.96-17.9 15.15-7.85 3.01-16.41-0.16-24.53 0.07-4.9 4.61-7.98 10.8-12.6 15.68-7.78 9.81-23.67-4.68-28.99 7.95-5.66 13.7-22.68 12.1-34.01 7.06-7.09 10.58-17.45 22.53-31.72 19.38 1.42 18.87-22.05 40.27-39.52 26.41-10.57 6.38-17.83 19.43-30.87 21.32-13.83-2.53-21.61-16.54-28.94-26.21-2.72 12.49-11.07 24.03-23.78 27.51-3.23-4.27-9.54-4.21-11.5 1.16-6.47-2.32-9.72-10.08-16.66-11.82-6.78 9.72-19.69 10.37-26.79 19.37-11.66 14.75-41.4 16.52-47.92-3.8-15.31 6.12-41.65 24.54-55.75 5.54-18.39 6.87-36.46 18.75-56.92 16.5-8.18-4.42-0.22-16.8-2.02-21.73-23.58 13.08-46.4 28.81-72.64 37.12h-1.88c15.96-33.97 51.59-56.63 60.73-93.78-15.93 3.54-26.8 17.14-39.82 25.95-22.9 15.92-45.97 32.78-72.82 41.18-6.37 1.7-17.27 9.8-20.91 0.6 30.22-30.98 65.83-56.76 96.07-87.46 5.19-7.85 13.28-14.54 14.28-24.48-11.12 1.9-19.42 10.41-28.86 15.92-39.72 23.89-81.69 49.53-129.3 51.59-3.02-0.5-7.99 3.5-9.94-0.4 50.6-26.35 98.65-57.13 144.76-90.62 3.56-1.77 7.95-9.99-0.44-6.75-27.49 15.31-55.09 31.15-85.1 41.17-26.25 9.02-50.85 24.04-79.16 25.61-1.17-4.89-5.94-3.77-9.79-5.19 50.5-32.9 108.82-51.49 159.29-84.39 5.38-0.1 2.11-8.03-1.86-4.8-55.04 22.3-112.87 39.12-172.27 42.35-0.41-4.62-2.95-5.97-7.31-4.94 59.36-24.28 126.86-32.32 183.12-62.79-9.26-6.12-25.4 0.97-37.32 2.56-50.94 4.83-104.56-1.91-149.61-27.8v-2.73c65.93 22.28 139.25 24.21 205.59 2.84 8.57-3.16-2.59-10.29-6.83-12.6 5.62 1.3 15.21 2.01 11.5-6.87 35.69 1.6 70.13-10.73 103.8-21.02 2.26-1.44 9.37-1.43 7.74-5.81-9.16-3.3-19.93-5.56-26.29-13.33 2.41-6.76-7.06-9.29-7.96-13.18 59.34 0.87 115.34-21.69 172.56-33.85 32.51 0.29 61.18-18.06 90.14-30.69 26.1-11.55 50.99-25.73 76.55-38.49 37.53-21.98 78.42-38 114.6-62.4 16.85-16.48 37.94-29.99 48.35-51.9 4.09-13.17-4.66-25.84-12.66-35.58-18.86-13.85-11.99-48.43 9.53-56.31 19.44-12.59 46.09-6.22 63.51 7.27 18.49 8.17 37.23 18.67 57.99 18.79 28.69-1.66 59.12-4.6 82.66-22.88 59.52-43.18 120.92-85.48 169.62-141.34 16.9-19.03 43.9-21.23 66.5-29.58 31.1-11.44 64.3-15.26 96-24.56 4.4 4.27 10.3 1.05 15.4 0.06 35.9-10.41 73.4-16.71 107.5-32.7 50.3-18.48 97.7-44.3 148.1-62.67z"/>
</svg>
