<?xml version="1.0" encoding="UTF-8"?>
<svg width="2404pt" height="2249pt" version="1.1" viewBox="0 0 2404 2249" xmlns="http://www.w3.org/2000/svg">
 <path d="m44.55 0h2.75c1.3 1.79 2.39 3.78 4.07 5.25 21.08 1.44 45.14-1.77 63.48 10.94 12.54 19.18 21.88 40.33 35.54 58.79 6.98-0.81 10.12 4.18 12.27 9.71 25.3 6.67 58.85-0.2 76.9 22.74 4.2 4.5 4.02 12.46 10.35 14.88 28.08 7.45 57.55 10.82 84.8 21.29 13.95 2-0.31-14.23-0.71-18.65 23.56-0.43 45.66 9.38 67.96 16.05 16.44 7.28 37.21 16.01 43.13 33.93 26.67 1.94 50.99 14.44 75.45 24.49 14.92 10.52 28.72 22.73 45.37 30.61-7.39 8.05 6.32 9.89 5.66 18.47 7.39 15.9-25.29 6.13-21.99 18.24 26.96-1.37 51.48 11.73 74.46 24.23 13.67 13.28 37.24 18.93 42.45 39.36 7.06 3.73 6.87 12.98 15.18 14.95-2.59 6.73-27.78 6.88-13.12 13.7-5.17 9.61-12.63 17.89-19.84 26.04-2.92 10.43 14.1 6.68 20.28 10.99 47.23 8.55 91.65 29.1 131.56 55.38 6.78 3.52-1.33 14.12 6.48 15.65 40.01 14.31 79.07 32.69 115 54.99 13.16 5.02 26.54 9.75 38.36 17.62 37.73 14.27 74.91 29.97 112.61 44.34 29.8 14.35 58.9 31 85.8 50.12 3.9 4.51 6.4 10.21 11.1 13.95 7.4 4.11 2 14.92 7.7 20.35 15.8 14.57 29.8 30.89 44.6 46.36 6.2 13.6 21.9 16.79 32.9 25.13 21.1 12.58 33.5 34.59 49.7 52.35 11.9 14.45 25.7 27.56 34.8 44.13 16.4 8.88 31.4 20.18 44.9 33.13 16.3 12.85 32.9 26.15 40.5 46.47 5.6 16.33 24.5 23.46 29.7 40.15 8.4 10.58 35.2 2.82 30 22.18 7.8 17.18 31.8 20.02 35.9 39.09 1.4 10 4.8 24 15.4 27.1 72.6 3.1 144.7 14.1 217.4 16.1 66.5 1.8 133-3.4 199.4-0.9 29.3-3.8 58.4 6.5 87.4 2.8 14.4 7.7 23.7 22 38.6 28.7 12.2 5.1-13.1 18.5 1 24 4.2 10.8 14.5 18.3 16.8 29.5-7.8 14.9-27.6 26.9-44.6 19.3-8.9-2.3-6.1 9.7-1.3 12.3 11.9 9.9 27.6 13.9 40.2 22.8 16.6 7.2 37.7 12.9 44.1 32 2 9.3 7.2 18.8 4.3 28.5 14.8 14.1 37.7 29.3 36.1 53-2.6 14.3-20.5 15.2-32.1 14.7 12.1 29.1 48.2 38.9 71.1 58.4 15.4 5.4 36.7 2.6 46.8 18.1 3.2 5.1 14.1 1.5 10.1 10.8 15.2 9.9 23.6 29 33.9 44.3 10.8 10.9 15.2 27 10 41.5 6 11.1 20.2 11.6 30.7 15.7 6.7 15.8 19 32.8 35.4 36.4-8.7 10.1 7.9 9.6 7.7 18.3-4.8 5.9 2 11.8 7 14.3 3.4 5.3 4.6 12.1 8 17.6v2.8c-5.9-3.5-4.7 8.1 0 7.3v0.9c-3.6 18.8-25.8 18.8-41.8 16.4 0.8 33.2 46.1 51.1 36.2 86.2-14.2 9.9-30.6 0-43.5-7.2-109.1-69.9-226.5-125.9-344.9-178.1-47.6-22.2-95.4-43.9-143.8-64.2-12.4-6.9-27.2-2-40-8.1-12.3-5.5-25.7-7.4-38.9-9.5 2.9 13.6 16.7 24.3 14.1 40 5.8 4.3 9.2 10.5 12.5 16.8 14.1 6.7 17 24.4 28.2 34 19.1 7.2 36.3 20.5 43.7 40-0.7 4.2-9.5 2.7-7.7 8.7 5.1 12.1 13.8 22.9 16.7 35.9-3.7 8.1-15.4 6.6-22.6 5.9 0.1 10.5 12.9 15.9 12.4 26.8 2.8 6.5-5.4 8-9.6 8.4-11.6-10-29.5-8.8-44.3-11.6-2.5 12.5 28.4 4.5 21.6 18.8 10.1 3.9 23.6 0.5 31.1 9.8 23.3 25.7 49.2 49.2 73.5 73.7-4.3 13 12.8 9.2 19 15.7 8.9 9.5 12.8 23.6 24.7 30.2 5.6 3.1 9.9 7.9 10.2 14.6 10.9 7.3 15.8 20.3 27.2 27.3 0.8 12.4 16.5 13.5 16.9 24.9 10.4 9.5 13.2 23.8 20.6 35.3-8.9-1.6-15.8-10.1-25.2-8.8-2.1 5 1.5 8.6 5.2 11 13.6 18.5 32.2 34 43 54.8 26.2 22.4 42.5 55 51.2 87.5-13.5 0.7-23.1-12.4-35.3-13.3-0.3 16 21.8 20.3 23.3 36.5 12.5 11.7 24 25 31.7 40.4 26.5 30.6 55.1 60 76.4 94.7 7.7 12.8 1.5 28.3 5.7 41.8h-0.9c-4.9-2.5-14-11.3-17.6-3.2-5.1-14.2-18.8-21.9-27.8-33.4-14 0.1-15.5-16.6-22.2-25.5-1.4-3.8-7.1-1.3-6.5 2.6-80.7-99.5-171.4-190.6-261.3-281.9-3.6-3.3-8.2-0.2-5.7 4.6 31.5 45.9 74 83.1 108.5 126.8 22.7 32.4 51.5 60.4 73.1 93.5-5.8 10.6 16 15.6 7.4 26-10.2-1.1-29.7-26.5-33.2-8.1-17.9-13.2-36.3-28.1-59-29.3-11.7-4.7-21.9-12.3-32.5-18.9-9.6-6.7-14.1-18.9-24.5-24.5-15.1-9.1-21.8-27.2-37.2-35.7-20.8-27.2-46.4-50.5-70.1-75.1-9.3-2.8-15.3-10.7-21.1-17.8-39.9-26-82.1-47.9-119.9-76.1-26.2-16.7-50.1-37.1-76.1-53.9-90.4-38.1-180.9-84.7-246.7-159.3-25.1-24.6-42.2-56.1-67.9-80.1-22.9-25.7-42.5-54.5-57.4-85.5-7.7-12.5-16.1-24.6-29.1-32-38.6-33.7-76.8-68.9-106.3-111-25.5-5.5-52.3 0-77.4-8.3-58.06-9-115.64-23.2-170.55-44.5-40.3-13-79.83-30.6-122.29-34.9-24.12-10.7-50.61-11.7-76.06-16.9-40.31-0.5-82.61-9.8-121.17 6.6-23.98-1.4-32.28 25.9-53.01 32.7-7.46-7.6 3.38-13.7 2.76-21.6-5.12-2-9.88 11.1-12.7 4.4 0.85-7.2 7.63-12.1 9.81-18.9-6.69-3.6-9.63 5.1-13.47 8.9-8.32 8.9 1.22 19.3 4.61 28.3-25.05-13.4-36.05-46.3-24.05-72 6.89-12.7 12.02-26.2 19.82-38.4 10.9-73.8 69.51-133.5 137.24-160.6 43.26-9.1 83.04-29.05 122.7-47.45 2.49-9.04 2.51-19.01-2.24-27.26-4.98-22.95-12.55-45.58-25.55-65.3-12.85-46.57-48-81.76-75.65-119.33-42.88-53.11-90.02-103.7-140.97-148.99-43.91-40.44-101.63-65.04-138.24-113.81-23.78-13.85-45.89-31.81-65.95-51-30.35-24.62-56.3-54.23-79.43-85.62-4.53-11.72-14.04-22.32-27.24-23.44-15.69-9.14-29.32-20.77-44.83-30.42-11.81-11.92-21.98-27.85-36.48-35.52-59.14-55.68-98.75-135.41-107.16-217.46v-3.88c23.4-2.83 38.85 22.71 57.58 29.19-3.32-20.36-13.16-40.22-14.21-61.09 5.62-3.08 3.15-9.89 1.18-14.62z"/>
</svg>
