<?xml version="1.0" standalone="no"?>
<!DOCTYPE svg PUBLIC "-//W3C//DTD SVG 20010904//EN"
 "http://www.w3.org/TR/2001/REC-SVG-20010904/DTD/svg10.dtd">
<svg version="1.0" xmlns="http://www.w3.org/2000/svg"
 width="1280.000000pt" height="1173.000000pt" viewBox="0 0 1280.000000 1173.000000"
 preserveAspectRatio="xMidYMid meet">
<metadata>
Created by potrace 1.15, written by Peter Selinger 2001-2017
</metadata>
<g transform="translate(0.000000,1173.000000) scale(0.100000,-0.100000)"
fill="#000000" stroke="none">
<path d="M11210 11706 c-201 -71 -270 -128 -728 -600 -101 -104 -185 -186
-188 -183 -3 2 60 136 140 296 79 160 142 292 138 295 -4 2 -148 -123 -320
-278 l-313 -281 -945 -1438 -945 -1438 -826 -1017 c-454 -559 -830 -1016 -835
-1014 -6 1 -117 -34 -247 -79 -195 -68 -245 -89 -288 -123 -28 -23 -70 -54
-93 -71 -23 -16 -91 -85 -151 -152 -61 -68 -116 -123 -123 -123 -7 0 -57 18
-110 41 -95 39 -215 69 -281 69 -18 0 -44 -9 -58 -20 -32 -25 -74 -109 -93
-186 -14 -57 -33 -404 -22 -404 3 0 43 20 89 44 158 84 253 95 303 35 57 -67
144 -2 -1184 -885 l-1211 -804 -272 -136 c-1036 -518 -1974 -1086 -2319 -1403
-92 -85 -326 -385 -288 -369 8 4 170 76 360 161 190 84 388 173 440 195 l95
42 -45 -42 c-26 -24 -120 -111 -211 -194 -177 -163 -265 -256 -350 -374 -101
-138 -334 -519 -324 -529 7 -6 -13 -23 710 630 369 333 678 610 686 614 8 5
-12 -22 -44 -60 -118 -140 -422 -522 -502 -629 -161 -217 -226 -330 -324 -562
-71 -169 -112 -284 -101 -284 6 0 933 1054 1028 1169 34 41 -4 -21 -129 -209
-309 -467 -368 -591 -464 -971 -48 -193 -49 -199 -37 -199 4 0 219 281 477
624 259 343 471 622 473 621 2 -1 -44 -94 -102 -206 -191 -371 -312 -652 -340
-789 -18 -88 -39 -352 -34 -427 l3 -52 479 755 c264 415 480 753 482 752 1 -2
-13 -66 -32 -143 -52 -210 -151 -658 -168 -760 -19 -113 -34 -251 -41 -380 -3
-55 -8 -128 -11 -162 -4 -42 -2 -63 5 -63 6 0 155 288 331 640 176 352 321
640 323 640 2 0 0 -28 -4 -62 -21 -172 -40 -481 -35 -560 4 -48 18 -152 32
-230 14 -79 28 -158 31 -175 3 -18 9 -33 12 -33 4 0 103 238 221 530 118 292
217 530 220 530 5 0 132 -384 168 -507 8 -29 18 -53 21 -53 3 0 80 132 171
292 91 160 177 303 192 316 73 66 250 196 342 251 215 128 450 235 996 456
622 252 867 375 1167 588 292 208 792 637 1277 1096 82 77 152 138 155 135 3
-3 82 -127 176 -277 196 -312 157 -279 383 -318 89 -15 155 -20 222 -17 114 5
152 21 270 116 l80 64 158 3 c168 4 289 23 354 56 49 25 173 142 249 235 l58
71 93 7 c167 13 307 55 359 109 28 29 65 112 85 192 l16 65 237 146 c265 165
246 153 240 158 -2 3 -416 98 -919 212 -503 114 -917 209 -919 210 -1 1 1 56
5 121 l9 118 120 72 c505 305 656 421 1020 787 398 399 839 936 1060 1291 169
270 289 571 456 1135 33 113 63 215 67 226 4 12 43 76 87 143 l80 121 175 56
c223 71 319 117 390 189 37 37 49 56 39 59 -8 2 -140 18 -294 36 -312 35 -357
41 -352 46 2 2 95 24 208 50 364 82 574 141 743 210 61 24 67 28 46 36 -73 27
-475 26 -804 -2 -148 -13 -453 -25 -446 -17 3 2 149 51 325 107 505 160 646
214 895 341 155 80 197 105 189 113 -2 3 -73 10 -156 17 -118 10 -186 10 -305
1 -308 -24 -546 -77 -1078 -239 -293 -89 -382 -115 -385 -111 -2 2 406 188
906 413 500 226 909 414 909 418 0 20 -345 -34 -557 -87 -178 -45 -312 -85
-633 -191 -320 -105 -590 -187 -603 -182 -5 1 75 43 179 92 311 148 554 269
649 325 207 121 387 265 495 393 l61 72 -28 8 c-46 14 -173 0 -258 -28 -115
-38 -352 -157 -560 -280 -593 -352 -699 -408 -858 -456 -25 -7 -27 -6 -17 7 7
8 135 107 284 221 441 336 622 491 773 663 89 102 207 260 200 267 -8 8 -223
-69 -311 -110 -207 -99 -405 -234 -785 -537 -139 -111 -303 -239 -365 -285
-107 -79 -249 -175 -260 -175 -3 0 61 64 142 142 510 492 745 745 891 958 60
88 161 258 161 272 0 12 -8 10 -80 -16z"/>
</g>
</svg>
